<?xml version="1.0" standalone="no"?>
<!DOCTYPE svg PUBLIC "-//W3C//DTD SVG 20010904//EN"
 "http://www.w3.org/TR/2001/REC-SVG-20010904/DTD/svg10.dtd">
<svg version="1.0" xmlns="http://www.w3.org/2000/svg"
 width="300.000000pt" height="300.000000pt" viewBox="0 0 300.000000 300.000000"
 preserveAspectRatio="xMidYMid meet">

<g transform="translate(0.000000,300.000000) scale(0.100000,-0.100000)"
fill="#000000" stroke="none">
<path d="M264 2982 c-48 -23 -80 -60 -96 -113 -8 -29 -16 -39 -32 -39 -35 0
-92 -46 -115 -93 -38 -79 -19 -159 48 -204 44 -29 122 -31 167 -4 l31 19 107
-107 c58 -58 106 -109 106 -112 0 -3 -22 -44 -50 -90 -60 -100 -111 -226 -136
-332 l-18 -77 -50 -24 c-66 -30 -106 -71 -106 -107 0 -34 41 -78 97 -103 l40
-18 6 -86 c17 -230 123 -494 268 -669 l48 -58 -156 -157 -156 -156 -31 19
c-45 27 -123 25 -167 -4 -67 -45 -86 -125 -48 -204 23 -47 80 -93 115 -93 16
0 24 -10 33 -40 43 -145 243 -176 305 -46 21 45 20 103 -3 147 l-19 36 161
161 162 161 65 -41 c36 -22 93 -54 127 -70 53 -25 64 -35 74 -66 57 -177 212
-312 390 -342 222 -38 451 102 528 321 19 52 21 54 112 101 50 27 104 58 120
68 15 11 31 20 35 20 5 0 79 -70 165 -156 l157 -157 -19 -31 c-27 -45 -25
-123 4 -167 45 -67 125 -86 204 -48 47 23 93 80 93 115 0 16 10 24 40 33 145
43 176 243 46 305 -45 21 -103 20 -147 -3 l-36 -19 -153 153 -153 154 50 61
c149 182 253 441 270 672 l6 88 43 21 c77 37 104 96 68 147 -8 12 -41 35 -73
51 l-57 29 -18 79 c-26 109 -77 234 -140 339 l-54 89 105 107 106 106 36 -19
c44 -23 102 -24 147 -3 130 62 99 262 -46 305 -30 9 -40 17 -40 33 0 35 -46
92 -93 115 -79 38 -159 19 -204 -48 -29 -44 -31 -122 -4 -167 l19 -31 -101
-101 -102 -101 -58 48 c-127 105 -307 193 -487 239 -95 24 -122 27 -295 27
-173 0 -200 -3 -295 -27 -181 -46 -357 -133 -490 -241 l-61 -50 -104 103 -103
103 19 36 c36 68 17 160 -44 203 -41 29 -111 34 -163 10z m129 -33 c63 -32 77
-117 31 -184 l-26 -38 220 -221 220 -221 -56 -68 -57 -67 -220 220 c-121 121
-227 220 -236 220 -9 0 -22 -7 -29 -15 -7 -8 -29 -20 -50 -26 -81 -24 -150 30
-150 118 0 58 52 118 113 130 38 8 42 12 47 44 15 91 116 147 193 108z m2357
-25 c28 -25 41 -47 47 -77 8 -38 12 -42 44 -47 94 -16 147 -116 105 -198 -31
-60 -114 -72 -181 -26 l-38 26 -222 -222 -222 -221 -28 38 c-15 21 -41 52 -56
68 l-29 31 210 209 c116 115 210 217 210 226 0 9 -7 22 -15 29 -8 7 -20 29
-26 50 -24 81 30 150 118 150 35 0 50 -7 83 -36z m-1057 -129 c205 -31 429
-133 592 -270 l30 -25 -86 -86 -86 -86 -64 47 c-227 167 -548 230 -811 159
-94 -25 -254 -104 -332 -163 l-69 -53 -89 89 -89 88 33 28 c113 96 293 194
437 237 160 49 357 62 534 35z m58 -309 c48 -14 112 -36 143 -50 165 -73 327
-229 410 -393 14 -29 26 -54 26 -56 0 -3 -25 4 -55 14 -338 111 -1293 102
-1578 -16 -16 -7 -15 -1 8 46 117 233 352 413 613 470 124 27 313 21 433 -15z
m829 -341 c73 -149 120 -305 89 -293 -12 5 -165 40 -237 54 -15 3 -27 16 -34
34 -5 17 -27 65 -48 107 l-38 78 87 88 86 88 23 -28 c13 -15 45 -73 72 -128z
m-1967 57 l87 -88 -30 -54 c-16 -30 -37 -76 -45 -101 l-16 -46 -87 -17 c-48
-10 -111 -23 -139 -31 -62 -15 -61 -18 -33 82 31 113 144 343 169 343 3 0 46
-40 94 -88z m1292 -292 c488 -30 841 -102 918 -188 27 -29 9 -55 -60 -87 -51
-25 -265 -85 -299 -85 -11 0 -14 18 -14 75 0 67 -3 79 -24 100 -71 71 -435
117 -926 117 -482 0 -823 -44 -906 -116 -24 -20 -27 -32 -32 -99 -4 -66 -7
-77 -23 -77 -40 0 -256 62 -302 88 -85 46 -88 76 -11 119 120 67 532 138 904
156 162 8 630 6 775 -3z m-80 -115 c245 -10 502 -51 562 -90 21 -14 23 -22 23
-108 0 -231 -84 -443 -241 -611 -126 -134 -278 -224 -455 -267 -111 -28 -294
-30 -396 -5 -275 65 -498 238 -620 481 -62 122 -109 354 -94 457 6 38 12 47
41 61 86 41 338 75 635 86 191 8 281 7 545 -4z m880 -267 c-3 -18 -7 -54 -10
-80 l-6 -48 -115 0 -114 0 -1 28 -1 27 -8 -30 c-10 -38 -13 -2 -4 42 6 28 10
31 72 43 53 9 179 42 189 49 1 0 0 -14 -2 -31z m-2291 -3 c54 -14 109 -25 123
-25 26 0 28 -5 38 -65 4 -29 3 -36 -4 -25 -7 10 -11 11 -11 3 0 -10 -31 -13
-119 -13 l-120 0 -5 43 c-11 92 -12 107 -7 107 4 0 51 -11 105 -25z m526 -682
c13 -11 -23 -51 -264 -292 l-278 -278 26 -38 c19 -27 26 -51 26 -84 -1 -154
-224 -147 -250 8 -5 32 -9 36 -47 44 -61 12 -113 72 -113 130 0 88 69 142 150
118 21 -6 43 -18 50 -26 7 -8 20 -15 29 -15 9 0 137 121 286 270 l269 269 50
-46 c28 -25 58 -52 66 -60z m1825 -419 c67 46 150 34 181 -26 42 -82 -11 -182
-105 -198 -32 -5 -36 -9 -44 -47 -12 -61 -72 -113 -130 -113 -88 0 -142 69
-118 150 6 21 18 43 26 50 8 7 15 20 15 29 0 9 -122 138 -270 286 l-270 271
67 56 68 56 271 -270 271 -270 38 26z m-1555 281 c30 -10 57 -19 59 -21 6 -5
-30 -104 -39 -104 -4 0 -29 15 -56 33 -49 33 -90 96 -80 122 5 14 9 14 33 2
16 -8 53 -22 83 -32z m705 8 c-11 -44 -48 -86 -103 -116 l-50 -27 -17 50 c-17
53 -14 70 13 70 9 0 42 11 72 24 78 33 94 33 85 -1z m-477 -53 l42 0 0 -65 0
-65 -42 0 c-41 0 -154 22 -164 32 -3 4 5 34 30 104 3 8 18 9 48 3 24 -4 62 -8
86 -9z m-268 -79 l56 -37 -15 -46 c-9 -26 -19 -49 -22 -53 -4 -3 -25 15 -48
41 -39 45 -71 121 -71 168 1 19 3 18 22 -8 12 -16 47 -45 78 -65z m541 32 c10
-29 15 -55 11 -57 -9 -6 -118 -25 -164 -29 l-38 -3 0 68 0 67 63 4 c112 7 108
8 128 -50z m215 -27 c-16 -56 -102 -165 -116 -149 -8 8 -42 106 -37 107 32 11
91 50 122 82 47 48 54 39 31 -40z m-797 -138 c76 -83 241 -148 376 -148 166 0
367 97 422 203 20 39 23 32 12 -28 -25 -135 -121 -260 -248 -323 -73 -36 -78
-37 -185 -37 -104 0 -115 2 -179 32 -84 40 -165 115 -205 192 -40 74 -84 233
-49 177 7 -11 32 -42 56 -68z m206 67 c33 -8 79 -15 103 -15 l42 0 0 -80 0
-80 -27 0 c-44 1 -113 19 -174 46 l-57 26 14 46 c20 66 22 72 31 72 4 -1 35
-7 68 -15z m419 -39 c9 -30 16 -58 16 -64 0 -22 -150 -71 -217 -72 l-33 0 0
80 0 80 48 1 c26 0 72 7 102 14 30 7 58 13 62 14 4 0 14 -23 22 -53z"/>
<path d="M1010 1671 c-87 -27 -165 -96 -203 -180 -33 -72 -30 -179 6 -253 35
-72 111 -141 179 -164 69 -23 187 -16 246 15 55 28 114 89 143 149 19 38 24
63 24 132 0 73 -4 92 -27 136 -34 65 -114 137 -175 158 -48 17 -149 20 -193 7z"/>
<path d="M1807 1665 c-261 -100 -276 -463 -24 -581 63 -29 168 -33 240 -8 63
21 140 92 173 160 51 105 32 248 -45 336 -62 69 -130 101 -226 105 -52 2 -93
-2 -118 -12z"/>
<path d="M1424 1076 c-27 -27 -34 -42 -34 -73 0 -132 191 -150 215 -20 13 67
-39 127 -108 127 -31 0 -46 -7 -73 -34z"/>
</g>
</svg>
