<?xml version="1.0" standalone="no"?>
<!DOCTYPE svg PUBLIC "-//W3C//DTD SVG 20010904//EN"
 "http://www.w3.org/TR/2001/REC-SVG-20010904/DTD/svg10.dtd">
<svg version="1.0" xmlns="http://www.w3.org/2000/svg"
 width="1555.000000pt" height="2000.000000pt" viewBox="0 0 1555.000000 2000.000000"
 preserveAspectRatio="xMidYMid meet">

<g transform="translate(0.000000,2000.000000) scale(0.100000,-0.100000)"
fill="#000000" stroke="none">
<path d="M7538 18190 l4 -90 -36 0 -36 0 0 -60 0 -60 35 0 c21 0 35 -5 36 -12
13 -255 24 -297 89 -331 28 -15 47 -17 100 -11 36 3 108 6 161 5 l96 -3 6 78
c4 42 7 102 7 133 0 66 26 117 65 127 27 7 79 2 106 -10 13 -6 25 7 52 59 l35
66 -29 14 c-48 25 -118 19 -171 -14 l-47 -30 -3 27 c-3 27 -4 27 -85 30 l-83
3 -1 -128 c-1 -70 -4 -166 -8 -213 l-6 -85 -16 45 c-14 42 -18 45 -47 42 -42
-5 -52 18 -52 121 l0 84 45 6 c26 2 48 7 51 9 2 3 2 31 -2 62 l-7 56 -48 0
-49 0 0 85 0 85 -82 0 -83 0 3 -90z"/>
<path d="M6208 18221 c-36 -9 -69 -19 -73 -22 -5 -5 55 -267 161 -704 l5 -20
-15 20 c-8 11 -21 28 -28 38 -12 16 -18 17 -41 6 -38 -17 -51 -3 -81 89 -32
96 -32 100 2 108 61 15 63 18 43 77 -19 55 -23 57 -88 42 l-31 -7 -22 73 c-12
41 -25 77 -29 82 -7 7 -129 -29 -145 -43 -7 -7 12 -76 41 -157 3 -6 -9 -14
-26 -18 -36 -8 -37 -14 -15 -79 16 -46 17 -48 49 -42 l33 7 32 -98 c18 -54 42
-113 53 -132 45 -75 124 -90 223 -42 32 16 94 37 137 47 42 10 77 20 77 24 0
3 -13 61 -30 128 -16 68 -30 137 -30 153 0 41 48 89 89 89 57 0 77 -31 115
-183 19 -76 36 -141 39 -143 2 -3 38 4 78 14 62 16 73 22 71 38 -15 85 -76
316 -92 341 -53 88 -219 96 -298 17 -20 -20 -38 -31 -41 -25 -4 5 -24 84 -45
175 -22 92 -42 165 -45 165 -3 -1 -36 -9 -73 -18z"/>
<path d="M8372 18065 c-96 -42 -154 -128 -154 -229 0 -97 46 -173 133 -221 48
-26 64 -30 139 -30 92 0 141 18 188 68 l24 25 -53 36 -53 35 -34 -21 c-49 -30
-117 -21 -154 21 -29 32 -37 71 -16 71 15 0 250 -28 296 -36 30 -5 32 -7 32
-47 1 -90 79 -192 170 -222 100 -33 234 -13 283 42 17 19 16 21 -29 57 -54 42
-50 41 -98 21 -67 -28 -166 19 -166 80 0 32 3 32 178 -6 78 -17 150 -28 158
-25 13 5 15 20 13 85 -4 69 -8 85 -34 123 -66 94 -215 134 -323 88 -33 -14
-69 -41 -97 -72 -25 -28 -45 -44 -45 -37 0 71 -58 150 -135 185 -59 28 -170
32 -223 9z m159 -100 c27 -14 56 -61 45 -72 -4 -4 -169 16 -174 22 -8 8 21 47
41 55 33 13 55 12 88 -5z m523 -96 c24 -19 37 -69 19 -69 -27 0 -163 35 -163
42 0 4 9 17 20 28 27 27 89 27 124 -1z"/>
<path d="M6950 18055 c-124 -39 -204 -180 -171 -302 17 -62 68 -123 131 -156
50 -26 62 -29 135 -25 65 3 90 10 134 34 47 25 111 91 111 115 0 4 -27 16 -59
27 l-60 20 -18 -20 c-43 -47 -109 -61 -163 -33 -30 15 -48 51 -33 65 4 4 67
15 138 24 210 28 195 23 188 60 -29 159 -171 241 -333 191z m140 -115 c37 -37
31 -42 -87 -58 -61 -9 -63 -8 -63 14 0 55 107 87 150 44z"/>
<path d="M9329 17891 c-59 -60 -27 -161 56 -177 68 -13 135 58 120 127 -17 76
-120 105 -176 50z"/>
<path d="M9840 17705 c-63 -20 -114 -66 -147 -133 -89 -180 36 -371 227 -349
48 6 50 5 45 -16 -5 -19 3 -25 65 -51 39 -15 73 -26 76 -24 8 9 174 413 174
425 0 6 -32 24 -71 39 -67 26 -72 27 -81 10 -9 -16 -12 -15 -28 12 -24 38 -71
71 -127 88 -56 17 -75 17 -133 -1z m160 -160 c95 -49 59 -205 -47 -205 -111 0
-156 118 -73 193 35 31 75 35 120 12z"/>
<path d="M5502 17649 c-47 -15 -76 -33 -112 -67 -61 -59 -71 -99 -41 -166 25
-58 63 -76 160 -76 82 0 101 -6 101 -31 0 -32 -42 -51 -107 -48 l-58 3 -3 -42
c-4 -47 -11 -51 -37 -22 -17 19 -20 19 -36 4 -31 -28 -52 -13 -96 71 -23 44
-42 83 -43 87 0 4 18 17 40 28 22 11 40 23 40 27 0 5 -46 90 -55 101 -2 2 -22
-6 -45 -18 -23 -12 -43 -20 -45 -18 -1 2 -16 30 -33 63 -49 95 -40 91 -121 51
l-71 -36 40 -80 40 -80 -30 -15 -30 -16 21 -42 c34 -66 37 -69 70 -52 l28 15
47 -91 c71 -138 114 -179 185 -179 44 0 112 34 147 74 23 26 39 34 80 39 57 7
143 46 185 86 60 55 72 113 37 181 -32 63 -59 75 -167 75 -99 0 -127 11 -103
39 14 18 72 36 113 36 26 0 27 1 27 60 l0 60 -32 -1 c-18 0 -61 -9 -96 -20z"/>
<path d="M9258 17603 c-53 -33 -63 -103 -22 -153 l26 -31 -51 -51 -52 -52 21
-20 20 -21 46 24 c100 53 174 147 174 221 0 46 -55 100 -101 100 -19 0 -46 -8
-61 -17z"/>
<path d="M10284 17378 c-42 -79 -92 -171 -111 -205 l-34 -62 64 -35 c35 -20
69 -36 75 -36 5 0 40 56 77 124 70 130 86 146 149 146 43 0 76 -35 76 -79 0
-22 -22 -75 -65 -154 -36 -66 -65 -124 -65 -129 0 -4 31 -24 70 -43 l69 -35
51 93 c111 204 123 232 116 281 -5 32 -18 57 -48 90 -53 62 -90 79 -160 79
-53 -1 -57 1 -48 17 8 16 1 24 -54 54 -35 20 -69 36 -74 36 -6 0 -45 -64 -88
-142z"/>
<path d="M4802 17281 c-60 -21 -105 -59 -123 -105 -17 -42 -17 -42 -32 -22
-12 17 -18 15 -80 -24 -37 -24 -66 -46 -65 -50 11 -26 244 -390 250 -390 15 0
128 75 128 84 0 5 -31 59 -68 120 -82 133 -83 135 -71 179 17 62 83 86 131 47
14 -11 58 -71 97 -135 40 -63 74 -115 76 -115 4 0 125 77 132 84 2 2 -39 71
-92 154 -83 131 -101 153 -139 171 -52 25 -75 26 -144 2z"/>
<path d="M10814 17147 c-84 -40 -134 -122 -134 -217 0 -78 27 -135 91 -195 71
-67 127 -90 219 -90 85 0 116 13 173 72 51 52 71 109 64 181 -6 74 -33 127
-90 179 -67 62 -120 86 -202 90 -59 3 -78 0 -121 -20z m219 -166 c55 -55 35
-146 -40 -177 -42 -18 -88 -6 -124 32 -48 51 -23 145 46 175 34 15 87 2 118
-30z"/>
<path d="M4357 16985 c-50 -40 -56 -48 -47 -65 10 -18 7 -20 -22 -20 -40 0
-104 -29 -140 -62 -121 -114 -74 -336 86 -409 52 -23 145 -25 189 -3 65 33
127 107 127 154 0 24 9 26 25 3 12 -16 16 -15 51 10 63 44 86 66 82 77 -7 20
-273 359 -283 360 -5 0 -36 -20 -68 -45z m37 -199 c91 -38 102 -143 20 -197
-72 -47 -164 8 -164 98 0 47 22 80 64 99 39 17 40 17 80 0z"/>
<path d="M11439 16966 c-29 -36 -55 -66 -59 -66 -3 0 -15 7 -26 15 -10 8 -22
15 -25 15 -4 0 -22 -21 -42 -46 l-36 -46 26 -22 27 -23 -64 -78 c-75 -92 -100
-137 -100 -183 0 -60 51 -127 120 -156 19 -8 46 -26 60 -41 14 -15 42 -41 63
-57 l37 -30 103 107 c100 105 103 108 146 108 36 0 49 -6 68 -27 47 -55 34
-83 -99 -223 -43 -46 -78 -86 -78 -91 0 -4 25 -32 54 -62 l55 -53 89 94 c125
133 150 162 162 193 25 67 -1 148 -68 208 -37 33 -55 41 -130 51 -7 1 44 63
113 137 l125 134 -52 53 c-29 29 -57 53 -63 53 -6 0 -113 -109 -237 -242 -124
-134 -238 -254 -252 -267 l-26 -24 17 43 c13 33 14 45 5 48 -16 5 -42 31 -42
42 0 6 28 44 117 159 2 2 20 -10 42 -27 l39 -31 40 48 41 48 -40 34 -39 34 55
67 55 66 -48 39 c-26 21 -55 44 -64 51 -14 12 -23 5 -69 -52z"/>
<path d="M3674 16838 l-54 -53 262 -290 c144 -159 264 -291 267 -292 3 -1 33
21 65 50 l59 53 -263 292 c-145 161 -267 292 -272 292 -6 0 -34 -24 -64 -52z"/>
<path d="M3710 16423 c-67 -24 -132 -102 -145 -176 -7 -35 -9 -37 -24 -23 -16
14 -22 10 -74 -42 l-58 -58 258 -247 258 -246 58 57 59 57 -102 97 c-64 61
-97 99 -89 102 8 2 30 10 51 16 50 15 123 96 138 151 43 159 -86 320 -255 318
-33 0 -67 -3 -75 -6z m138 -198 c36 -39 41 -78 17 -125 -17 -32 -61 -60 -95
-60 -55 0 -110 57 -110 115 0 64 64 121 125 110 17 -3 44 -20 63 -40z"/>
<path d="M11963 16219 c-118 -21 -196 -119 -196 -244 1 -76 30 -140 89 -195
58 -53 116 -80 177 -80 54 0 56 5 33 80 -11 37 -18 46 -42 51 -67 13 -114 65
-114 124 1 26 19 65 32 65 2 0 53 -56 113 -125 60 -69 113 -125 118 -125 15 0
69 64 88 105 35 75 21 161 -40 242 -61 79 -160 119 -258 102z m138 -135 c39
-20 63 -73 49 -109 -6 -15 -14 -25 -19 -23 -12 4 -111 120 -111 129 0 7 18 14
43 18 4 0 22 -6 38 -15z"/>
<path d="M12205 15755 c-99 -74 -179 -141 -179 -148 1 -8 20 -39 43 -70 l42
-56 107 80 c120 88 159 103 200 72 23 -16 53 -62 65 -97 4 -12 147 15 147 28
-1 22 -38 92 -61 113 -29 26 -71 43 -107 43 l-27 0 28 23 28 22 -46 63 c-26
34 -50 62 -53 62 -4 -1 -88 -61 -187 -135z"/>
<path d="M3180 15813 c-73 -38 -112 -94 -118 -168 -4 -52 -6 -55 -22 -40 -16
15 -21 11 -65 -50 -40 -56 -45 -69 -34 -80 22 -20 352 -257 363 -261 10 -3 96
108 96 124 0 4 -50 43 -111 87 -126 90 -149 121 -129 181 13 39 35 54 81 54
25 0 60 -20 151 -86 66 -47 121 -84 123 -82 2 1 24 31 49 65 l45 62 -122 89
c-160 117 -165 120 -212 127 -32 5 -50 1 -95 -22z"/>
<path d="M2880 15332 c-64 -33 -88 -53 -124 -105 -86 -126 -80 -272 16 -364
96 -93 247 -85 347 17 105 108 129 265 58 371 -12 19 -47 49 -77 67 -47 28
-63 32 -120 32 -41 -1 -78 -7 -100 -18z m120 -157 c39 -20 70 -62 70 -95 0
-36 -38 -91 -75 -109 -25 -12 -35 -12 -69 0 -74 26 -103 107 -60 166 38 51 84
64 134 38z"/>
<path d="M12617 15306 c-63 -17 -124 -60 -162 -115 -27 -39 -30 -50 -30 -124
0 -78 2 -85 37 -137 20 -30 51 -64 69 -74 l32 -19 -24 -13 c-88 -49 -184 26
-178 139 l3 50 -56 40 c-31 22 -61 36 -67 33 -6 -4 -17 -30 -26 -59 -26 -89 9
-202 94 -298 56 -64 119 -92 192 -87 50 4 80 18 292 138 l236 133 -37 69 c-31
57 -41 68 -58 64 -18 -5 -20 -1 -21 42 -2 153 -146 259 -296 218z m126 -177
c53 -24 72 -99 38 -155 -57 -94 -202 -52 -201 59 0 23 6 49 13 57 36 46 99 63
150 39z"/>
<path d="M2315 14986 c-32 -32 -40 -69 -25 -107 33 -78 138 -80 175 -2 44 91
-79 180 -150 109z"/>
<path d="M2554 14828 c-19 -38 -33 -72 -31 -74 2 -2 89 -47 193 -99 l189 -95
-54 3 c-51 2 -55 0 -61 -23 -4 -16 -14 -26 -29 -28 -25 -4 -181 56 -181 69 0
5 8 24 17 44 19 41 17 45 -49 73 l-47 20 -18 -44 c-10 -24 -21 -44 -26 -44 -4
0 -37 14 -74 30 -36 17 -71 30 -77 30 -11 0 -72 -137 -65 -145 3 -2 36 -17 74
-34 71 -30 79 -41 61 -82 -5 -12 5 -21 43 -38 62 -27 65 -26 79 4 6 14 16 25
21 25 6 0 45 -15 88 -34 149 -65 209 -67 266 -9 29 32 57 101 57 144 0 16 4
29 8 29 10 0 78 138 71 144 -2 2 -98 50 -212 105 l-207 100 -36 -71z"/>
<path d="M12843 14774 c-56 -20 -126 -99 -143 -158 -28 -99 7 -214 87 -293 44
-42 102 -69 128 -59 11 4 15 22 15 65 0 50 -3 61 -19 66 -11 3 -34 22 -50 41
-24 27 -31 44 -31 77 0 44 22 87 44 87 7 0 43 -69 81 -154 74 -169 70 -165
140 -117 101 69 129 188 72 310 -25 54 -71 101 -123 126 -51 25 -147 29 -201
9z m212 -159 c17 -17 25 -35 25 -60 0 -39 -15 -75 -31 -75 -7 0 -79 141 -79
156 0 2 14 4 30 4 19 0 40 -9 55 -25z"/>
<path d="M13197 14366 c-43 -16 -56 -25 -51 -36 19 -43 11 -51 -85 -86 -158
-57 -195 -91 -194 -175 1 -49 45 -146 70 -156 9 -3 13 -26 13 -68 0 -87 25
-158 76 -214 41 -45 43 -46 100 -46 99 1 142 46 151 159 7 92 11 106 33 106
26 0 40 -36 40 -100 l0 -48 51 -11 c28 -6 55 -8 61 -5 7 4 9 34 5 81 -12 160
-104 262 -209 233 -70 -20 -91 -57 -113 -203 -8 -48 -31 -59 -58 -26 -15 19
-18 34 -14 69 3 25 9 53 12 62 5 13 -2 19 -34 29 -23 7 -41 14 -41 16 0 3 10
13 21 22 19 15 20 20 8 39 -22 35 -1 54 94 88 l85 31 17 -44 c9 -23 22 -43 28
-43 9 0 94 29 105 35 1 1 -5 21 -13 45 -9 24 -12 47 -8 51 5 3 38 16 75 29 37
12 70 25 73 30 5 8 -37 135 -47 146 -3 2 -38 -7 -78 -21 -40 -14 -77 -25 -82
-25 -4 0 -14 13 -20 29 l-13 28 -58 -21z"/>
<path d="M2332 14313 c-11 -32 -23 -65 -27 -75 -4 -11 0 -18 14 -23 19 -6 18
-9 -16 -38 -48 -43 -75 -105 -75 -177 0 -241 347 -332 465 -122 33 59 41 138
18 180 -11 21 -10 23 15 20 25 -3 28 2 51 70 14 40 23 75 22 76 -6 5 -433 146
-441 146 -3 0 -15 -26 -26 -57z m218 -178 c37 -19 50 -43 50 -94 0 -50 -37
-98 -84 -106 -93 -18 -167 82 -122 164 27 49 99 65 156 36z"/>
<path d="M2161 13807 c-26 -54 -26 -99 -1 -156 11 -24 20 -44 20 -45 0 -2 -13
-1 -29 2 -22 3 -30 -1 -34 -15 -13 -44 -30 -133 -26 -136 5 -4 441 -107 450
-107 7 0 43 149 37 155 -1 2 -55 15 -118 30 -127 30 -164 46 -180 74 -16 31
-12 83 11 120 11 18 19 35 17 36 -33 31 -106 85 -114 85 -7 0 -22 -19 -33 -43z"/>
<path d="M13473 13448 c-52 -9 -53 -10 -53 -44 0 -27 -5 -35 -22 -38 -13 -3
-61 -13 -108 -22 -96 -18 -159 -49 -180 -90 -20 -36 -17 -122 5 -163 9 -19 19
-59 21 -90 2 -31 7 -71 10 -90 l5 -34 62 7 c155 16 234 18 255 7 32 -17 55
-67 47 -102 -11 -50 -49 -65 -207 -79 l-140 -13 7 -81 c4 -45 7 -82 8 -82 8
-7 348 36 367 46 100 51 131 197 62 295 l-30 43 36 5 c21 3 101 11 180 18
l143 12 -7 76 c-4 42 -9 79 -13 83 -3 3 -171 -11 -373 -31 -203 -20 -368 -36
-368 -34 0 1 18 12 40 23 38 20 40 23 34 55 -5 27 -2 35 13 44 25 13 182 40
187 32 2 -3 7 -25 11 -49 8 -48 -2 -45 96 -26 31 6 31 7 25 54 -7 55 -14 51
97 70 l69 13 -6 31 c-3 17 -8 51 -12 74 -4 24 -12 46 -18 48 -6 2 -45 -2 -86
-10 -80 -15 -90 -12 -90 32 0 12 -3 21 -7 21 -5 -1 -32 -6 -60 -11z"/>
<path d="M2180 13369 c-51 -15 -96 -53 -127 -106 -22 -37 -28 -62 -31 -127 -4
-74 -1 -86 25 -136 74 -140 237 -178 363 -86 117 85 147 283 58 390 -16 20
-33 36 -37 36 -10 0 -71 -88 -71 -103 0 -7 7 -21 15 -31 19 -26 19 -89 0 -126
-17 -33 -43 -50 -74 -50 -26 0 -26 6 3 190 13 80 22 147 20 149 -9 10 -112 9
-144 0z m30 -154 c0 -40 -24 -165 -31 -165 -15 0 -48 38 -54 63 -9 33 19 95
47 107 32 13 38 12 38 -5z"/>
<path d="M2070 12839 c-41 -17 -69 -49 -90 -106 -26 -71 -25 -109 5 -169 30
-59 29 -54 6 -54 -23 0 -31 -26 -31 -102 l0 -58 33 -1 c17 0 122 -6 232 -13
110 -7 201 -11 203 -11 1 1 5 38 9 82 l6 81 -139 7 c-76 4 -148 12 -159 17
-58 29 -74 107 -30 148 24 23 27 23 178 17 l154 -7 7 47 c12 86 8 110 -16 116
-50 12 -343 17 -368 6z"/>
<path d="M13371 12529 c-85 -16 -168 -95 -192 -183 -16 -57 -6 -163 19 -211
20 -39 88 -113 96 -104 2 2 15 28 30 57 l27 52 -26 37 c-34 51 -34 111 1 152
16 19 35 31 50 31 l24 0 0 -170 0 -170 31 0 c90 0 171 47 212 123 31 60 31
194 0 253 -54 100 -161 153 -272 133z m163 -190 c36 -29 37 -99 1 -134 -13
-14 -29 -25 -35 -25 -6 0 -10 34 -10 90 0 50 4 90 9 90 4 0 20 -9 35 -21z"/>
<path d="M2143 12300 c-54 -11 -92 -31 -124 -67 -88 -94 -89 -251 -3 -351 118
-138 322 -114 407 48 27 51 29 61 25 140 -3 61 -10 97 -26 126 -22 44 -88 108
-101 99 -5 -2 -19 -29 -31 -60 l-22 -55 26 -31 c51 -60 27 -164 -41 -184 -21
-6 -23 -3 -24 32 -1 21 -4 99 -8 173 -7 149 -4 144 -78 130z m-9 -240 c8 -92
5 -104 -28 -89 -47 22 -61 98 -25 143 35 45 46 34 53 -54z"/>
<path d="M8640 12228 c-19 -5 -43 -17 -52 -25 -21 -18 -54 -87 -83 -174 -44
-129 -149 -385 -178 -434 -79 -134 -479 -659 -538 -706 -53 -41 -101 -58 -171
-59 -74 0 -101 11 -126 52 -44 71 -45 110 -12 369 34 270 37 359 15 444 -28
108 -102 214 -189 274 -55 38 -82 45 -115 31 -39 -16 -52 -49 -61 -160 -5 -52
-16 -178 -25 -280 -23 -266 -41 -341 -123 -527 -91 -204 -149 -383 -164 -501
-13 -106 0 -319 32 -532 49 -320 60 -746 31 -1145 -12 -159 -26 -328 -31 -375
-6 -47 -19 -170 -30 -275 -30 -290 -57 -490 -93 -712 -18 -112 -33 -203 -33
-203 1 0 17 4 35 10 62 18 253 49 401 65 93 10 231 16 385 16 272 0 426 -13
643 -54 72 -14 72 -14 66 7 -3 12 -43 140 -89 286 -176 558 -265 910 -321
1280 -26 166 -24 399 4 502 30 110 69 185 129 243 94 93 204 138 498 204 351
78 553 154 825 307 202 113 420 281 556 428 89 95 108 126 99 166 -8 37 -58
80 -93 80 -37 0 -66 -20 -217 -144 -123 -102 -327 -246 -348 -246 -5 0 -3 8 4
17 8 9 126 150 262 312 137 163 257 313 268 333 29 56 25 101 -11 136 -56 57
-123 51 -204 -16 -24 -20 -98 -100 -164 -177 -66 -77 -165 -183 -219 -236
-103 -102 -283 -259 -295 -259 -26 0 8 50 125 189 304 357 449 558 617 855 89
157 105 204 86 250 -18 42 -76 92 -126 107 -36 11 -46 10 -84 -9 -62 -30 -150
-149 -234 -318 -77 -153 -248 -333 -512 -541 -85 -66 -186 -146 -225 -177 -38
-32 -93 -70 -121 -86 -101 -58 -116 -32 -41 73 70 97 158 256 204 365 102 247
223 698 223 833 0 120 -65 170 -180 137z"/>
<path d="M13186 11798 c-49 -85 -63 -160 -46 -245 14 -67 48 -106 107 -122 80
-22 146 17 186 109 34 78 71 104 82 57 5 -20 -5 -60 -30 -119 -5 -13 4 -24 41
-47 44 -29 48 -29 60 -13 21 31 44 124 44 181 -1 111 -54 174 -148 174 -35 0
-49 -6 -78 -34 -20 -19 -50 -58 -66 -87 -24 -41 -35 -52 -52 -50 -35 5 -34 64
4 116 16 23 30 44 30 46 0 6 -96 76 -103 76 -4 0 -17 -19 -31 -42z"/>
<path d="M2222 11766 c-128 -19 -235 -36 -237 -38 -2 -2 0 -33 5 -68 5 -36 10
-71 10 -77 0 -7 9 -13 19 -13 19 0 19 -2 5 -35 -18 -43 -18 -136 -1 -178 67
-160 289 -197 416 -69 48 49 71 101 71 164 0 46 -26 133 -45 148 -25 21 -17
30 28 30 35 0 49 -6 72 -30 44 -46 46 -132 4 -191 -9 -12 -4 -27 26 -72 21
-31 41 -57 45 -57 18 0 60 44 79 83 16 33 21 63 21 123 0 134 -36 221 -116
277 -60 42 -124 42 -402 3z m72 -170 c18 -8 41 -24 50 -37 23 -33 21 -100 -4
-132 -45 -57 -144 -53 -180 6 -48 78 -1 165 93 176 4 1 23 -5 41 -13z"/>
<path d="M13125 11418 c-3 -7 -11 -43 -19 -81 -13 -66 -13 -67 8 -72 11 -3 74
-16 139 -29 87 -17 125 -30 142 -46 49 -46 40 -121 -17 -145 -30 -12 -48 -10
-173 15 -77 16 -143 26 -147 24 -9 -6 -32 -143 -25 -150 3 -4 77 -22 164 -40
192 -41 220 -39 280 20 68 68 86 160 46 239 -7 15 -9 27 -4 27 5 0 85 -16 177
-34 92 -19 170 -33 174 -31 9 6 33 145 27 152 -3 3 -167 38 -364 79 -197 40
-368 76 -381 79 -13 3 -24 0 -27 -7z"/>
<path d="M2457 11026 c-3 -7 -9 -35 -12 -60 -7 -44 -5 -50 23 -79 39 -40 55
-83 47 -124 -6 -33 -53 -80 -65 -66 -4 4 -27 79 -50 166 -24 86 -48 157 -54
157 -6 0 -33 -11 -61 -24 -90 -42 -135 -112 -135 -209 0 -105 49 -192 138
-245 39 -23 58 -27 117 -27 81 1 134 23 182 78 110 126 68 352 -79 428 -44 23
-44 23 -51 5z m-121 -272 c13 -43 24 -80 24 -81 0 -6 -39 -3 -55 3 -21 9 -45
56 -45 91 0 32 26 76 42 71 6 -2 22 -40 34 -84z"/>
<path d="M13115 10871 c-136 -33 -217 -180 -169 -305 5 -14 2 -17 -17 -14 -21
3 -25 -4 -46 -71 -13 -41 -22 -75 -21 -76 3 -3 428 -136 442 -138 5 -1 19 32
32 73 20 65 21 76 8 83 -12 7 -7 17 24 52 21 24 44 61 50 83 42 140 -34 268
-183 307 -64 16 -74 17 -120 6z m124 -195 c80 -73 23 -205 -83 -192 -44 5 -92
45 -99 83 -7 39 11 90 41 114 22 17 37 20 75 16 26 -2 56 -12 66 -21z"/>
<path d="M2530 10521 c-80 -31 -155 -63 -168 -71 -32 -21 -62 -89 -62 -141 1
-81 33 -142 95 -181 29 -18 30 -18 7 -24 -25 -7 -25 -7 12 -99 15 -38 28 -59
37 -57 24 5 413 154 422 161 7 7 -37 127 -52 143 -4 5 -65 -15 -136 -42 -144
-56 -179 -58 -215 -13 -25 32 -26 84 -2 112 9 11 76 43 147 70 72 27 131 55
133 63 4 21 -45 133 -60 135 -7 1 -78 -24 -158 -56z"/>
<path d="M12915 10321 c-126 -33 -205 -157 -172 -274 7 -26 6 -27 -18 -21 -23
6 -27 1 -55 -62 -17 -37 -27 -71 -22 -76 4 -4 168 -77 364 -162 l356 -154 33
74 c17 41 30 76 28 78 -2 1 -75 33 -161 71 -87 37 -158 71 -158 74 0 3 15 16
34 28 71 46 108 182 72 267 -45 107 -194 185 -301 157z m105 -186 c37 -19 50
-43 50 -94 0 -82 -80 -131 -154 -96 -60 29 -81 88 -51 145 30 58 94 77 155 45z"/>
<path d="M2631 9965 c-126 -35 -223 -114 -274 -223 -29 -61 -32 -76 -32 -162
0 -88 3 -101 33 -162 82 -167 269 -252 448 -203 270 73 387 365 236 590 -21
31 -58 72 -81 90 -87 69 -227 99 -330 70z m221 -201 c53 -34 93 -119 84 -181
-8 -60 -38 -106 -93 -145 -129 -88 -264 -73 -325 38 -29 52 -36 112 -18 158
14 38 79 105 123 127 81 42 166 43 229 3z"/>
<path d="M12660 9791 c-72 -22 -148 -90 -176 -157 -31 -73 -37 -130 -19 -189
8 -30 18 -55 20 -55 3 0 28 15 55 33 l50 32 0 59 c0 53 3 61 34 92 19 19 42
35 53 35 23 2 57 -2 62 -6 2 -2 -33 -70 -78 -150 -44 -80 -81 -150 -81 -154 0
-14 105 -51 142 -51 96 0 200 80 233 179 32 96 7 208 -62 273 -59 56 -158 81
-233 59z m188 -244 c25 -52 -21 -127 -78 -127 -16 0 -30 5 -30 10 0 20 75 150
85 147 6 -2 16 -15 23 -30z"/>
<path d="M6745 6474 c-144 -22 -275 -117 -334 -243 -22 -47 -26 -70 -26 -146
0 -111 23 -164 105 -245 45 -45 87 -71 212 -133 179 -88 218 -122 218 -188 0
-101 -145 -150 -287 -98 -61 23 -188 92 -198 109 -13 21 -27 6 -96 -110 -85
-142 -87 -131 50 -203 123 -65 217 -88 361 -88 286 0 455 116 490 336 20 124
-7 212 -93 296 -63 62 -130 106 -237 153 -126 56 -208 104 -226 132 -18 27
-14 85 7 111 56 67 228 59 356 -17 19 -11 36 -20 38 -20 2 0 31 52 63 115 68
133 69 125 -38 173 -109 49 -275 79 -365 66z"/>
<path d="M9010 6469 c-249 -38 -482 -261 -535 -514 -19 -91 -19 -217 1 -313
48 -240 233 -435 469 -497 37 -10 102 -16 170 -16 127 0 197 15 300 66 121 59
241 186 299 316 79 181 74 424 -14 603 -61 123 -186 247 -305 302 -108 50
-263 71 -385 53z m261 -315 c63 -35 119 -102 150 -181 19 -49 23 -77 23 -173
0 -130 -19 -195 -78 -273 -124 -163 -405 -149 -523 26 -44 65 -67 175 -60 281
6 96 25 152 73 223 66 97 150 135 280 129 67 -3 92 -9 135 -32z"/>
<path d="M4088 5800 l-3 -650 148 0 147 0 0 250 c0 138 3 250 8 249 4 0 93
-112 197 -249 l190 -249 188 0 c103 -1 187 1 187 3 0 2 -99 123 -220 268
l-219 263 50 24 c70 33 144 103 173 164 74 153 49 351 -57 458 -106 105 -164
119 -514 119 l-273 0 -2 -650z m422 409 c36 -5 75 -17 88 -25 85 -55 84 -223
-1 -278 -27 -18 -177 -42 -201 -33 -14 6 -16 30 -16 170 0 90 3 167 7 170 9
10 48 9 123 -4z"/>
<path d="M5310 5800 l0 -650 375 0 375 0 0 130 0 130 -225 0 -225 0 0 130 0
130 215 0 215 0 0 130 0 130 -215 0 -215 0 0 130 0 130 225 0 225 0 0 130 0
130 -375 0 -375 0 0 -650z"/>
<path d="M7400 6320 l0 -130 155 0 155 0 0 -520 0 -520 148 0 147 0 0 518 0
517 153 5 153 5 0 125 0 125 -455 3 -456 2 0 -130z"/>
<path d="M10000 5800 l0 -650 150 0 151 0 -3 250 c-2 138 -1 250 2 250 3 0 93
-112 199 -250 l193 -250 189 0 189 0 -220 264 c-121 145 -220 266 -220 269 0
2 24 17 54 31 73 36 133 98 170 176 29 61 31 72 31 175 0 97 -3 117 -27 166
-49 106 -130 172 -253 204 -46 12 -119 15 -332 15 l-273 0 0 -650z m485 395
c120 -49 123 -252 6 -298 -21 -9 -73 -19 -115 -23 l-76 -7 0 178 0 177 78 -7
c42 -4 91 -13 107 -20z"/>
<path d="M11792 4305 c-235 -51 -383 -297 -331 -547 27 -125 122 -250 230
-301 241 -113 525 3 609 248 90 263 -59 546 -316 600 -83 18 -110 18 -192 0z
m185 -197 c43 -13 98 -78 119 -141 22 -66 15 -186 -13 -242 -25 -48 -68 -90
-106 -104 -40 -15 -141 -14 -180 3 -82 34 -130 120 -130 235 0 130 69 241 160
256 21 4 43 8 48 10 13 3 61 -4 102 -17z"/>
<path d="M2960 3865 l0 -435 100 0 100 0 0 175 0 175 140 0 140 0 0 85 0 85
-140 0 -140 0 0 90 0 90 150 0 150 0 0 85 0 85 -250 0 -250 0 0 -435z"/>
<path d="M3873 4283 c-4 -10 -82 -205 -174 -433 l-168 -415 96 -3 c53 -1 102
-1 108 2 7 2 25 41 40 85 l28 81 168 0 167 0 33 -85 32 -85 103 0 c57 0 104 3
104 7 0 4 -78 200 -172 435 l-173 428 -93 0 c-79 0 -94 -3 -99 -17z m104 -501
c-49 -1 -92 -1 -94 2 -3 3 11 47 31 98 19 51 40 107 46 123 11 29 13 26 60
-95 l47 -125 -90 -3z"/>
<path d="M4545 4288 c-4 -13 -75 -808 -75 -840 0 -16 11 -18 98 -18 l99 0 17
243 c10 133 20 249 23 257 4 14 19 -25 137 -362 l48 -138 54 0 c31 0 56 5 61
12 4 7 47 123 95 258 64 181 87 238 92 220 3 -14 13 -130 22 -257 l17 -233 99
0 98 0 -1 33 c0 17 -17 212 -37 432 l-37 400 -106 3 -106 3 -94 -246 c-51
-135 -96 -245 -99 -245 -3 0 -48 110 -99 245 l-94 245 -104 0 c-74 0 -105 -4
-108 -12z"/>
<path d="M5580 3865 l0 -435 100 0 100 0 0 435 0 435 -100 0 -100 0 0 -435z"/>
<path d="M5970 4298 c0 -2 -1 -198 -3 -436 l-2 -432 248 0 247 0 0 85 0 84
-147 3 -148 3 -3 348 -2 347 -95 0 c-52 0 -95 -1 -95 -2z"/>
<path d="M6690 4060 l160 -240 0 -195 0 -195 100 0 100 0 0 195 0 195 160 240
160 240 -119 0 -119 0 -88 -135 c-48 -74 -91 -135 -94 -135 -3 0 -46 61 -94
135 l-88 135 -119 0 -119 0 160 -240z"/>
<path d="M7820 3865 l0 -435 100 0 100 0 2 166 3 167 128 -167 128 -166 126 0
c118 0 125 1 112 18 -8 9 -68 82 -134 162 -66 80 -126 153 -133 162 -12 15 -9
19 25 37 49 25 98 76 117 123 22 52 21 172 -3 223 -10 22 -36 57 -59 77 -63
57 -115 68 -329 68 l-183 0 0 -435z m330 260 c39 -20 50 -43 50 -103 0 -59
-28 -90 -92 -103 -93 -18 -88 -24 -88 106 l0 115 50 0 c28 0 64 -7 80 -15z"/>
<path d="M8640 3865 l0 -435 250 0 250 0 0 85 0 85 -150 0 -150 0 0 90 0 90
140 0 140 0 0 85 0 85 -140 0 -140 0 0 90 0 90 150 0 150 0 0 85 0 85 -250 0
-250 0 0 -435z"/>
<path d="M9302 3968 c3 -323 4 -335 26 -383 43 -93 114 -144 233 -165 174 -32
335 33 393 159 20 44 21 64 24 384 l3 337 -100 0 -100 0 -3 -307 c-3 -279 -5
-311 -21 -335 -24 -34 -76 -52 -139 -46 -60 6 -95 37 -108 94 -5 21 -10 164
-10 317 l0 277 -101 0 -100 0 3 -332z"/>
<path d="M10160 3865 l0 -435 100 0 100 0 2 267 3 268 170 -267 170 -267 103
0 102 -1 0 435 0 435 -100 0 -100 0 0 -267 c0 -197 -3 -264 -11 -256 -6 6 -84
125 -173 265 l-162 253 -102 3 -102 3 0 -436z"/>
<path d="M11100 3865 l0 -435 100 0 100 0 0 435 0 435 -100 0 -100 0 0 -435z"/>
<path d="M12480 3865 l0 -435 100 0 100 0 2 265 3 265 170 -265 169 -265 98 0
98 0 0 435 0 435 -95 0 -95 0 0 -265 c0 -146 -3 -265 -7 -265 -5 0 -84 120
-177 265 l-169 265 -98 0 -99 0 0 -435z"/>
</g>
</svg>
